<?xml version="1.0"?><svg xmlns="http://www.w3.org/2000/svg"  viewBox="0 0 50 50" width="50px" height="50px">    <path d="M 23 1 L 7 42 C 7 42 17.547406 22 22.941406 22 C 22.986406 22 23.029219 22.002859 23.074219 22.005859 C 28.684219 22.400859 39 42 39 42 L 23 1 z M 27 1 L 26.072266 3.3730469 L 37.542969 32.763672 C 40.627969 37.496672 43 42 43 42 L 27 1 z M 13.078125 20.921875 L 5 29 L 8.5429688 32.542969 L 13.078125 20.921875 z M 36.921875 20.921875 L 41.457031 32.542969 L 45 29 L 36.921875 20.921875 z M 22.935547 24 C 21.448547 24 17.994297 27.963656 14.279297 33.597656 L 11 42 C 11 42 17.760609 29.188172 23.224609 24.076172 C 23.127609 24.050172 23.023547 24.006 22.935547 24 z M 24.982422 25.169922 L 24.589844 25.535156 C 21.277844 28.633156 17.371422 34.878422 14.982422 38.982422 L 25 49 L 35.03125 38.96875 C 35.03125 38.96875 35.029297 38.966797 35.029297 38.966797 C 31.605297 33.071797 27.665422 27.510922 24.982422 25.169922 z"/></svg>